<svg xmlns="http://www.w3.org/2000/svg" width="314.017" height="44.044" viewBox="0 0 314.017 44.044">
  <g id="Group_4" data-name="Group 4" transform="translate(-149.482 -14.722)">
    <path id="Path_20" data-name="Path 20" d="M3.384-23.04c-1.08.072-1.08,1.08-.576,1.944s1.512,1.584,2.448,1.08c.432-.216,2.232-.792,4.68-1.584-1.512,3.312-3.1,6.84-4.32,10.08C4.032-7.344,2.88-3.528,2.88-.936A8.3,8.3,0,0,0,5.472,5.328a5.257,5.257,0,0,0,6.984.216,2.249,2.249,0,0,0,.864-2.016c-.072-.864-.648-1.512-1.44-.936-1.224.936-4.176,1.872-5.544.792-1.512-1.152,0-8.928,3.888-17.928,1.152-2.664,2.52-5.544,3.888-8.28,2.016-.576,4.248-1.08,6.192-1.512a28.416,28.416,0,0,1,6.336-.936c1.08,0,1.3-.216,1.08-.576a4.164,4.164,0,0,0-2.016-1.44c-1.008-.36-2.88-.216-5.112.144a44.485,44.485,0,0,0-4.824,1.008l2.3-4.464c.576-1.224,1.08-2.16,1.224-2.664a3.874,3.874,0,0,0-.144-2.88c-.576-1.224-1.728-1.656-2.016-.288a45.9,45.9,0,0,1-2.3,4.9l-3.24,6.552c-1.512.432-2.952.792-4.176,1.08A21.462,21.462,0,0,1,3.384-23.04ZM36.072-19.3a3.665,3.665,0,0,0-.936-3.456,4.787,4.787,0,0,0-4.68-.936c-3.384.864-6.984,3.888-10.08,10.44-2.52,5.328-2.016,9.936.072,12.6a6.562,6.562,0,0,0,5.688,2.52c3.816-.288,8.064-3.528,11.52-7.344a38.424,38.424,0,0,0,7.056-10.512,2.248,2.248,0,0,0-.216-1.8c-.36-.648-1.08-.864-1.512,0A51.325,51.325,0,0,1,35.928-8.5c-3.888,4.176-8.5,7.848-11.664,7.7-1.656-.072-2.448-1.872-2.376-4.32a53.9,53.9,0,0,0,7.92-5.976C32.9-13.9,35.64-16.992,36.072-19.3ZM23.616-11.448a29.38,29.38,0,0,1,4.68-6.7c2.3-2.448,4.464-3.96,4.968-2.952.432.864-1.3,3.384-3.672,5.976a50.093,50.093,0,0,1-6.984,6.336A15.33,15.33,0,0,1,23.616-11.448ZM36.288-1.8a3.581,3.581,0,0,0,.432,2.808,3.623,3.623,0,0,0,2.16,1.728,9.944,9.944,0,0,0,6.552-1.008,6.229,6.229,0,0,0,3.024-4.1A8.864,8.864,0,0,0,48.6-5.112c1.08-.576,2.16-1.152,3.24-1.8a33.175,33.175,0,0,0,5.544-4.248,11.569,11.569,0,0,0,3.1-4.32,2.382,2.382,0,0,0-.288-2.376.746.746,0,0,0-1.3.072,20.211,20.211,0,0,1-3.672,4.68A30.65,30.65,0,0,1,50.256-9.36c-.792.5-1.584.936-2.376,1.368-1.008-2.592-2.448-4.9-2.232-7.272.072-1.44,1.512-3.528,3.24-5.256s3.672-3.1,5.04-3.312c1.368-.144,1.08-1.656,0-2.592a2.619,2.619,0,0,0-2.3-.648c-1.44.36-3.384,1.872-5.112,3.744-1.944,2.16-3.528,4.752-3.744,6.984-.36,4.032,1.8,6.768,2.736,9.576-1.44.72-2.88,1.368-4.176,1.944C38.592-3.528,36.5-2.52,36.288-1.8Zm9.5-2.016a4.467,4.467,0,0,1-2.448,3.1A7.95,7.95,0,0,1,38.376.288L38.52.072c.36-.648,1.512-1.3,3.1-2.016C42.84-2.52,44.28-3.1,45.792-3.816ZM78.264-28.008a14.734,14.734,0,0,1-2.88,5.328,6.486,6.486,0,0,1-4.536,2.016,2.251,2.251,0,0,0-.792-.648,1.941,1.941,0,0,0-1.224-.432,1.763,1.763,0,0,0-.864-1.44,3.489,3.489,0,0,0-1.944-.648c-2.088.072-5.976,3.24-9.144,8.928-2.808,5.04-3.528,8.928-2.736,10.872a6.43,6.43,0,0,0,2.736,3.1A3.308,3.308,0,0,0,59.76-.5c1.584-.792,4.608-2.592,8.064-7.7,3.024-4.464,4.032-7.344,3.96-9.792a9.972,9.972,0,0,0,3.744-1.224,6.779,6.779,0,0,0,2.3-1.944c.864.144,3.024-.144,2.736,1.368-.216,1.224-1.656,3.744-2.952,6.624A27.974,27.974,0,0,0,75.1-5.4,5.357,5.357,0,0,0,76.824-.72C77.976.288,79.7.576,81.792-.5c2.016-1.08,4.32-3.528,6.48-6.264a65.824,65.824,0,0,0,5.76-8.568,2.3,2.3,0,0,0-.144-2.376c-.432-.576-1.008-.792-1.368-.072a72.992,72.992,0,0,1-6.12,8.5c-3.168,3.816-6.552,7.272-7.992,6.768-1.008-.36.432-4.392,2.3-8.784,1.224-2.88,2.664-5.976,3.672-8.136a2.136,2.136,0,0,0,0-1.872,2.584,2.584,0,0,0-1.656-1.3,13.517,13.517,0,0,1-3.24-.864A6.651,6.651,0,0,0,80.64-26.5a1.956,1.956,0,0,0-.792-1.44C79.2-28.44,78.408-28.584,78.264-28.008Zm-18.216,14.4c1.728-3.024,4.1-5.832,6.336-6.984a2.657,2.657,0,0,0,1.008,1.584,3.608,3.608,0,0,0,1.368.72A23.731,23.731,0,0,1,65.3-10.512c-2.88,4.464-6.84,8.424-7.848,7.7C56.088-3.744,56.736-7.992,60.048-13.608Zm37.44-6.552a2.509,2.509,0,0,0-.792-2.952c-.648-.5-1.3-.648-1.656.072s-1.656,3.1-2.952,5.9a48.639,48.639,0,0,0-3.672,9.792A9.817,9.817,0,0,0,89.424-.432a4.316,4.316,0,0,0,4.608,2.088A22.364,22.364,0,0,0,102.1-2.016a16.963,16.963,0,0,0,4.32-3.96,2.562,2.562,0,0,0,.432-1.8c-.144-1.08-1.152-1.512-1.584-.648-.432.936-2.664,2.664-5.184,4.1-3.168,1.8-6.768,3.312-8.208,2.592-1.8-.936.288-6.7,2.376-11.592C95.616-16.56,97.056-19.368,97.488-20.16Zm0-14.328c-.936.432-.936,2.376.216,2.952s3.6,1.3,4.464.72c.936-.576.72-2.16-.648-2.808C100.152-34.344,98.424-34.992,97.488-34.488Z" transform="translate(147 52)" fill="#fff"/>
    <path id="Path_19" data-name="Path 19" d="M5.555,5.625A4.693,4.693,0,0,1,8.992,6.957a4.592,4.592,0,0,1,1.352,3.418v1.883a4.575,4.575,0,0,1-1.352,3.418A4.708,4.708,0,0,1,5.555,17H.438V15.633L1.648,15.4V7.234L.438,7V5.625H5.555ZM3.93,7.383V15.25H5.438a2.374,2.374,0,0,0,1.922-.828,3.252,3.252,0,0,0,.7-2.164v-1.9a3.228,3.228,0,0,0-.7-2.148,2.374,2.374,0,0,0-1.922-.828ZM19.6,12H15.753v3.25h3.672l.1-1.359h1.734V17h-9V15.633l1.211-.234V7.234L12.261,7V5.625h8.984V8.742H19.5l-.1-1.359H15.753v2.859H19.6ZM31.92,9.258H30.209l-.3-1.562a3.024,3.024,0,0,0-.867-.328,5.044,5.044,0,0,0-1.211-.141,2.329,2.329,0,0,0-1.449.395,1.23,1.23,0,0,0-.512,1.02,1.115,1.115,0,0,0,.535.949,7.4,7.4,0,0,0,1.848.785,7.208,7.208,0,0,1,2.855,1.383,2.868,2.868,0,0,1,.973,2.258,2.7,2.7,0,0,1-1.156,2.3,5.051,5.051,0,0,1-3.047.844,6.607,6.607,0,0,1-2.441-.43,5.029,5.029,0,0,1-1.816-1.187V13.172h1.766l.242,1.617a2.764,2.764,0,0,0,.934.465,4.418,4.418,0,0,0,1.316.184,2.275,2.275,0,0,0,1.426-.383,1.234,1.234,0,0,0,.488-1.023,1.32,1.32,0,0,0-.465-1.055,4.7,4.7,0,0,0-1.629-.75,9.275,9.275,0,0,1-3.062-1.391,2.635,2.635,0,0,1-1.039-2.2,2.708,2.708,0,0,1,1.172-2.262,4.884,4.884,0,0,1,2.945-.9,6.852,6.852,0,0,1,2.391.4A5.519,5.519,0,0,1,31.92,6.93ZM33.775,7V5.625h4.711V7l-1.219.234V15.4l1.219.234V17H33.775V15.633l1.219-.234V7.234Zm15.808,8.734a5.057,5.057,0,0,1-1.617.988,7.052,7.052,0,0,1-2.687.441,4.9,4.9,0,0,1-3.75-1.543,5.632,5.632,0,0,1-1.445-4.012v-.391a6.017,6.017,0,0,1,1.426-4.156,4.748,4.748,0,0,1,3.723-1.6,6.741,6.741,0,0,1,2.441.426,5.265,5.265,0,0,1,1.84,1.152V9.328H47.825L47.5,7.8a2.336,2.336,0,0,0-.824-.426,3.939,3.939,0,0,0-1.176-.16,2.736,2.736,0,0,0-2.32,1.1,4.674,4.674,0,0,0-.828,2.883v.406a4.364,4.364,0,0,0,.813,2.77,2.8,2.8,0,0,0,2.344,1.035,4.318,4.318,0,0,0,1.113-.117,2.449,2.449,0,0,0,.668-.273v-1.93l-1.625-.125v-1.6h3.914ZM63.148,5.625V7l-1.219.234V17H59.656L55.063,9.344l-.047.008V15.4l1.219.234V17H51.523V15.633l1.211-.234V7.234L51.523,7V5.625h3.492l4.594,7.656.047-.008V7.234L58.438,7V5.625h4.711Zm6.472,5.031h2.8v1.969h-2.8v3.234H67.456V12.625H64.628V10.656h2.828V7.578H69.62Zm9.558-5.031a4.693,4.693,0,0,1,3.438,1.332,4.592,4.592,0,0,1,1.352,3.418v1.883a4.576,4.576,0,0,1-1.352,3.418A4.708,4.708,0,0,1,79.178,17H74.061V15.633l1.211-.234V7.234L74.061,7V5.625h5.117ZM77.553,7.383V15.25h1.508a2.374,2.374,0,0,0,1.922-.828,3.252,3.252,0,0,0,.7-2.164v-1.9a3.228,3.228,0,0,0-.7-2.148,2.374,2.374,0,0,0-1.922-.828ZM93.228,12H89.377v3.25h3.672l.1-1.359h1.734V17h-9V15.633L87.1,15.4V7.234L85.884,7V5.625h8.984V8.742h-1.75l-.1-1.359H89.377v2.859h3.852Zm7.659-5-.867.156,2.016,6.82.141.625h.047l.133-.609,2.023-6.836L103.52,7V5.625h4.156V7l-.953.125L103.372,17h-2.344L97.669,7.125,96.731,7V5.625h4.156Zm15.628,5h-3.852v3.25h3.672l.1-1.359h1.734V17h-9V15.633l1.211-.234V7.234L109.172,7V5.625h8.984V8.742h-1.75l-.1-1.359h-3.641v2.859h3.852Zm3.675,5V15.633L121.4,15.4V7.234L120.191,7V5.625H124.9V7l-1.219.234V15.25h3.211L127,13.82h1.742V17Zm20.378-5.6a6.045,6.045,0,0,1-1.43,4.133,5.082,5.082,0,0,1-7.465,0,6.076,6.076,0,0,1-1.418-4.133v-.172A6.094,6.094,0,0,1,131.67,7.1a4.671,4.671,0,0,1,3.719-1.641A4.738,4.738,0,0,1,139.135,7.1a6.042,6.042,0,0,1,1.434,4.125Zm-2.273-.187a5.08,5.08,0,0,0-.734-2.867,2.441,2.441,0,0,0-2.172-1.1,2.38,2.38,0,0,0-2.145,1.094,5.223,5.223,0,0,0-.707,2.875V11.4a5.23,5.23,0,0,0,.715,2.895,2.389,2.389,0,0,0,2.145,1.1,2.432,2.432,0,0,0,2.172-1.1A5.165,5.165,0,0,0,138.3,11.4Zm9.4-5.586a4.472,4.472,0,0,1,3.082,1,3.35,3.35,0,0,1,1.129,2.629,3.324,3.324,0,0,1-1.129,2.625,4.506,4.506,0,0,1-3.082.992h-1.922V15.4l1.219.234V17h-4.711V15.633l1.211-.234V7.234L142.283,7V5.625H147.7Zm-1.922,5.492H147.7a1.885,1.885,0,0,0,1.441-.52,1.856,1.856,0,0,0,.488-1.324,1.934,1.934,0,0,0-.488-1.355,1.854,1.854,0,0,0-1.441-.535h-1.922Zm18.636-2.531-.047-.008L161.317,17h-1.531l-3.031-8.391-.047.008.219,4.992V15.4l1.219.234V17h-4.711V15.633l1.211-.234V7.234L153.434,7V5.625h4.188l2.9,8.383h.047l2.922-8.383h4.2V7l-1.219.234V15.4l1.219.234V17h-4.711V15.633l1.211-.234V13.609ZM176.648,12H172.8v3.25h3.672l.1-1.359H178.3V17h-9V15.633l1.211-.234V7.234L169.3,7V5.625h8.984V8.742h-1.75l-.1-1.359H172.8v2.859h3.852Zm15.3-6.375V7l-1.219.234V17h-2.273l-4.594-7.656-.047.008V15.4l1.219.234V17h-4.711V15.633l1.211-.234V7.234L180.323,7V5.625h3.492l4.594,7.656.047-.008V7.234L187.238,7V5.625h4.711Zm11.55,0V8.656h-1.75l-.094-1.273h-2.094V15.4l1.219.234V17h-4.719V15.633l1.219-.234V7.383h-2.086L195.1,8.656h-1.742V5.625Z" transform="translate(260 27)" fill="#b8e650"/>
  </g>
</svg>
