<svg xmlns="http://www.w3.org/2000/svg" width="203.061" height="72.163" viewBox="0 0 203.061 72.163">
  <g id="Group_5" data-name="Group 5" transform="translate(-985 -2428.001)">
    <path id="Path_20" data-name="Path 20" d="M3.542-20.544c-1.269.085-1.269,1.269-.677,2.285S4.642-16.4,5.742-16.99c.508-.254,2.623-.931,5.5-1.862C9.466-14.959,7.6-10.813,6.165-7,4.3-2.1,2.95,2.388,2.95,5.434A9.75,9.75,0,0,0,6,12.8a6.179,6.179,0,0,0,8.208.254,2.643,2.643,0,0,0,1.015-2.369c-.085-1.015-.762-1.777-1.692-1.1-1.439,1.1-4.908,2.2-6.516.931-1.777-1.354,0-10.493,4.57-21.071,1.354-3.131,2.962-6.516,4.57-9.731,2.369-.677,4.993-1.269,7.277-1.777a33.4,33.4,0,0,1,7.447-1.1c1.269,0,1.523-.254,1.269-.677a4.894,4.894,0,0,0-2.369-1.692c-1.185-.423-3.385-.254-6.008.169a52.283,52.283,0,0,0-5.67,1.185L20.8-29.429c.677-1.439,1.269-2.539,1.439-3.131a4.553,4.553,0,0,0-.169-3.385c-.677-1.439-2.031-1.946-2.369-.338A53.946,53.946,0,0,1,17-30.529l-3.808,7.7c-1.777.508-3.469.931-4.908,1.269A25.224,25.224,0,0,1,3.542-20.544Zm38.418,4.4a4.307,4.307,0,0,0-1.1-4.062c-1.185-1.185-3.131-1.692-5.5-1.1-3.977,1.015-8.208,4.57-11.847,12.27C20.551-2.774,21.143,2.642,23.6,5.773a7.712,7.712,0,0,0,6.685,2.962C34.767,8.4,39.76,4.588,43.822.1a45.16,45.16,0,0,0,8.293-12.355,2.642,2.642,0,0,0-.254-2.116c-.423-.762-1.269-1.015-1.777,0C48.9-12,45.6-7.6,41.791-3.451,37.221,1.457,31.805,5.773,28.082,5.6,26.136,5.519,25.205,3.4,25.29.526A63.349,63.349,0,0,0,34.6-6.5C38.237-9.8,41.452-13.436,41.96-16.144ZM27.321-6.92a34.53,34.53,0,0,1,5.5-7.87c2.708-2.877,5.246-4.654,5.839-3.469.508,1.015-1.523,3.977-4.316,7.024a58.873,58.873,0,0,1-8.208,7.447A18.017,18.017,0,0,1,27.321-6.92ZM42.214,4.419a4.208,4.208,0,0,0,.508,3.3A4.258,4.258,0,0,0,45.26,9.75a11.687,11.687,0,0,0,7.7-1.185,7.321,7.321,0,0,0,3.554-4.823A10.418,10.418,0,0,0,56.684.526c1.269-.677,2.539-1.354,3.808-2.116a38.99,38.99,0,0,0,6.516-4.993,13.6,13.6,0,0,0,3.639-5.077,2.8,2.8,0,0,0-.338-2.792.877.877,0,0,0-1.523.085,23.753,23.753,0,0,1-4.316,5.5,36.022,36.022,0,0,1-5.839,4.4c-.931.592-1.862,1.1-2.792,1.608-1.185-3.046-2.877-5.754-2.623-8.547.085-1.692,1.777-4.146,3.808-6.177s4.316-3.639,5.923-3.893c1.608-.169,1.269-1.946,0-3.046a3.079,3.079,0,0,0-2.708-.762c-1.692.423-3.977,2.2-6.008,4.4-2.285,2.539-4.146,5.585-4.4,8.208C49.407-7.936,51.945-4.72,53.045-1.42,51.353-.574,49.66.188,48.137.865,44.922,2.388,42.468,3.573,42.214,4.419ZM53.384,2.05a5.25,5.25,0,0,1-2.877,3.639C48.391,6.873,45.6,7.211,44.668,6.873l.169-.254c.423-.762,1.777-1.523,3.639-2.369C49.914,3.573,51.607,2.9,53.384,2.05ZM91.548-26.383a17.317,17.317,0,0,1-3.385,6.262,7.623,7.623,0,0,1-5.331,2.369,2.645,2.645,0,0,0-.931-.762,2.282,2.282,0,0,0-1.439-.508,2.072,2.072,0,0,0-1.015-1.692,4.1,4.1,0,0,0-2.285-.762c-2.454.085-7.024,3.808-10.747,10.493C63.115-5.059,62.269-.489,63.2,1.8a7.557,7.557,0,0,0,3.216,3.639,3.888,3.888,0,0,0,3.385.508c1.862-.931,5.416-3.046,9.478-9.054,3.554-5.246,4.739-8.631,4.654-11.508a11.72,11.72,0,0,0,4.4-1.439,7.968,7.968,0,0,0,2.708-2.285c1.015.169,3.554-.169,3.216,1.608-.254,1.439-1.946,4.4-3.469,7.785A32.877,32.877,0,0,0,87.824.188a6.3,6.3,0,0,0,2.031,5.5c1.354,1.185,3.385,1.523,5.839.254,2.369-1.269,5.077-4.146,7.616-7.362a77.362,77.362,0,0,0,6.77-10.07,2.7,2.7,0,0,0-.169-2.792c-.508-.677-1.185-.931-1.608-.085a85.787,85.787,0,0,1-7.193,9.985C97.387.1,93.409,4.165,91.717,3.573c-1.185-.423.508-5.162,2.708-10.324,1.439-3.385,3.131-7.024,4.316-9.562a2.51,2.51,0,0,0,0-2.2,3.036,3.036,0,0,0-1.946-1.523,15.886,15.886,0,0,1-3.808-1.015c.423-.677,1.439-2.454,1.354-3.554a2.3,2.3,0,0,0-.931-1.692C92.648-26.891,91.717-27.06,91.548-26.383ZM70.139-9.459c2.031-3.554,4.823-6.854,7.447-8.208a3.123,3.123,0,0,0,1.185,1.862,4.241,4.241,0,0,0,1.608.846c-.423,2.539-2.031,5.923-4.062,9.139-3.385,5.246-8.039,9.9-9.224,9.054C65.485,2.134,66.246-2.858,70.139-9.459Zm44-7.7a2.949,2.949,0,0,0-.931-3.469c-.762-.592-1.523-.762-1.946.085s-1.946,3.639-3.469,6.939A57.164,57.164,0,0,0,103.479-2.1a11.538,11.538,0,0,0,1.185,8.124,5.072,5.072,0,0,0,5.416,2.454,26.285,26.285,0,0,0,9.478-4.316,19.936,19.936,0,0,0,5.077-4.654,3.012,3.012,0,0,0,.508-2.116c-.169-1.269-1.354-1.777-1.862-.762-.508,1.1-3.131,3.131-6.093,4.823-3.723,2.116-7.954,3.893-9.647,3.046-2.116-1.1.338-7.87,2.792-13.624C111.941-12.928,113.634-16.229,114.141-17.159Zm0-16.84c-1.1.508-1.1,2.792.254,3.469s4.231,1.523,5.246.846c1.1-.677.846-2.539-.762-3.3C117.272-33.83,115.242-34.591,114.141-34Z" transform="translate(1022.518 2465.28)" fill="#fff"/>
    <path id="Path_19" data-name="Path 19" d="M5.555,5.625A4.693,4.693,0,0,1,8.992,6.957a4.592,4.592,0,0,1,1.352,3.418v1.883a4.575,4.575,0,0,1-1.352,3.418A4.708,4.708,0,0,1,5.555,17H.438V15.633L1.648,15.4V7.234L.438,7V5.625H5.555ZM3.93,7.383V15.25H5.438a2.374,2.374,0,0,0,1.922-.828,3.252,3.252,0,0,0,.7-2.164v-1.9a3.228,3.228,0,0,0-.7-2.148,2.374,2.374,0,0,0-1.922-.828ZM19.6,12H15.753v3.25h3.672l.1-1.359h1.734V17h-9V15.633l1.211-.234V7.234L12.261,7V5.625h8.984V8.742H19.5l-.1-1.359H15.753v2.859H19.6ZM31.92,9.258H30.209l-.3-1.562a3.024,3.024,0,0,0-.867-.328,5.044,5.044,0,0,0-1.211-.141,2.329,2.329,0,0,0-1.449.395,1.23,1.23,0,0,0-.512,1.02,1.115,1.115,0,0,0,.535.949,7.4,7.4,0,0,0,1.848.785,7.208,7.208,0,0,1,2.855,1.383,2.868,2.868,0,0,1,.973,2.258,2.7,2.7,0,0,1-1.156,2.3,5.051,5.051,0,0,1-3.047.844,6.607,6.607,0,0,1-2.441-.43,5.029,5.029,0,0,1-1.816-1.187V13.172h1.766l.242,1.617a2.764,2.764,0,0,0,.934.465,4.418,4.418,0,0,0,1.316.184,2.275,2.275,0,0,0,1.426-.383,1.234,1.234,0,0,0,.488-1.023,1.32,1.32,0,0,0-.465-1.055,4.7,4.7,0,0,0-1.629-.75,9.275,9.275,0,0,1-3.062-1.391,2.635,2.635,0,0,1-1.039-2.2,2.708,2.708,0,0,1,1.172-2.262,4.884,4.884,0,0,1,2.945-.9,6.852,6.852,0,0,1,2.391.4A5.519,5.519,0,0,1,31.92,6.93ZM33.775,7V5.625h4.711V7l-1.219.234V15.4l1.219.234V17H33.775V15.633l1.219-.234V7.234Zm15.808,8.734a5.057,5.057,0,0,1-1.617.988,7.052,7.052,0,0,1-2.687.441,4.9,4.9,0,0,1-3.75-1.543,5.632,5.632,0,0,1-1.445-4.012v-.391a6.017,6.017,0,0,1,1.426-4.156,4.748,4.748,0,0,1,3.723-1.6,6.741,6.741,0,0,1,2.441.426,5.265,5.265,0,0,1,1.84,1.152V9.328H47.825L47.5,7.8a2.336,2.336,0,0,0-.824-.426,3.939,3.939,0,0,0-1.176-.16,2.736,2.736,0,0,0-2.32,1.1,4.674,4.674,0,0,0-.828,2.883v.406a4.364,4.364,0,0,0,.813,2.77,2.8,2.8,0,0,0,2.344,1.035,4.318,4.318,0,0,0,1.113-.117,2.449,2.449,0,0,0,.668-.273v-1.93l-1.625-.125v-1.6h3.914ZM63.148,5.625V7l-1.219.234V17H59.656L55.063,9.344l-.047.008V15.4l1.219.234V17H51.523V15.633l1.211-.234V7.234L51.523,7V5.625h3.492l4.594,7.656.047-.008V7.234L58.438,7V5.625h4.711Zm6.472,5.031h2.8v1.969h-2.8v3.234H67.456V12.625H64.628V10.656h2.828V7.578H69.62Zm9.558-5.031a4.693,4.693,0,0,1,3.438,1.332,4.592,4.592,0,0,1,1.352,3.418v1.883a4.576,4.576,0,0,1-1.352,3.418A4.708,4.708,0,0,1,79.178,17H74.061V15.633l1.211-.234V7.234L74.061,7V5.625h5.117ZM77.553,7.383V15.25h1.508a2.374,2.374,0,0,0,1.922-.828,3.252,3.252,0,0,0,.7-2.164v-1.9a3.228,3.228,0,0,0-.7-2.148,2.374,2.374,0,0,0-1.922-.828ZM93.228,12H89.377v3.25h3.672l.1-1.359h1.734V17h-9V15.633L87.1,15.4V7.234L85.884,7V5.625h8.984V8.742h-1.75l-.1-1.359H89.377v2.859h3.852Zm7.659-5-.867.156,2.016,6.82.141.625h.047l.133-.609,2.023-6.836L103.52,7V5.625h4.156V7l-.953.125L103.372,17h-2.344L97.669,7.125,96.731,7V5.625h4.156Zm15.628,5h-3.852v3.25h3.672l.1-1.359h1.734V17h-9V15.633l1.211-.234V7.234L109.172,7V5.625h8.984V8.742h-1.75l-.1-1.359h-3.641v2.859h3.852Zm3.675,5V15.633L121.4,15.4V7.234L120.191,7V5.625H124.9V7l-1.219.234V15.25h3.211L127,13.82h1.742V17Zm20.378-5.6a6.045,6.045,0,0,1-1.43,4.133,5.082,5.082,0,0,1-7.465,0,6.076,6.076,0,0,1-1.418-4.133v-.172A6.094,6.094,0,0,1,131.67,7.1a4.671,4.671,0,0,1,3.719-1.641A4.738,4.738,0,0,1,139.135,7.1a6.042,6.042,0,0,1,1.434,4.125Zm-2.273-.187a5.08,5.08,0,0,0-.734-2.867,2.441,2.441,0,0,0-2.172-1.1,2.38,2.38,0,0,0-2.145,1.094,5.223,5.223,0,0,0-.707,2.875V11.4a5.23,5.23,0,0,0,.715,2.895,2.389,2.389,0,0,0,2.145,1.1,2.432,2.432,0,0,0,2.172-1.1A5.165,5.165,0,0,0,138.3,11.4Zm9.4-5.586a4.472,4.472,0,0,1,3.082,1,3.35,3.35,0,0,1,1.129,2.629,3.324,3.324,0,0,1-1.129,2.625,4.506,4.506,0,0,1-3.082.992h-1.922V15.4l1.219.234V17h-4.711V15.633l1.211-.234V7.234L142.283,7V5.625H147.7Zm-1.922,5.492H147.7a1.885,1.885,0,0,0,1.441-.52,1.856,1.856,0,0,0,.488-1.324,1.934,1.934,0,0,0-.488-1.355,1.854,1.854,0,0,0-1.441-.535h-1.922Zm18.636-2.531-.047-.008L161.317,17h-1.531l-3.031-8.391-.047.008.219,4.992V15.4l1.219.234V17h-4.711V15.633l1.211-.234V7.234L153.434,7V5.625h4.188l2.9,8.383h.047l2.922-8.383h4.2V7l-1.219.234V15.4l1.219.234V17h-4.711V15.633l1.211-.234V13.609ZM176.648,12H172.8v3.25h3.672l.1-1.359H178.3V17h-9V15.633l1.211-.234V7.234L169.3,7V5.625h8.984V8.742h-1.75l-.1-1.359H172.8v2.859h3.852Zm15.3-6.375V7l-1.219.234V17h-2.273l-4.594-7.656-.047.008V15.4l1.219.234V17h-4.711V15.633l1.211-.234V7.234L180.323,7V5.625h3.492l4.594,7.656.047-.008V7.234L187.238,7V5.625h4.711Zm11.55,0V8.656h-1.75l-.094-1.273h-2.094V15.4l1.219.234V17h-4.719V15.633l1.219-.234V7.383h-2.086L195.1,8.656h-1.742V5.625Z" transform="translate(984.563 2483)" fill="#b8e650"/>
  </g>
</svg>
